<?xml version="1.0" encoding="UTF-8"?>
<!-- Created with Inkscape (http://www.inkscape.org/) -->
<svg width="127.37mm" height="133.93mm" version="1.1" viewBox="0 0 127.37 133.93" xmlns="http://www.w3.org/2000/svg">
 <g transform="translate(-40.103 -74.292)">
  <path d="m77 179.46-1.2693-2.1473 1.4334-15.982s6e-3 -0.27772 0.02986-0.40315c0.02389-0.12542 0.08958-0.33744 0.08958-0.33744l1.4953-3.4393s0.18582-0.41387 0.20694-0.53634c0.02111-0.12248 0.13937-0.87842 0.13937-0.87842l0.86153-6.4699s0.08446-0.82775 0.52367-1.2332c0.43921-0.40543 0.99667-0.38853 0.99667-0.38853l2.8042 0.18581s0.91221 0.0338 1.3176 0.32097 0.7095 1.0136 0.7095 1.0136l1.7231 5.2705s0.08606 0.21811 0.10398 0.35548c0.01791 0.13737-0.01193 0.70475-0.01193 0.70475l-0.37921 4.109s-0.08446 0.62504-0.05068 0.84464c0.03379 0.21961 0.25339 0.81085 0.25339 0.81085l0.76017 1.6555s0.06757 0.0338 0.16893 0.38854c0.10136 0.35475 0.16893 0.82774 0.16893 0.82774l0.96075 14.931 3.4305 0.35463-0.48698-15.458s-0.02524-0.43495-0.0041-0.54686c0.02111-0.11191 0.12358-0.58791 0.12358-0.58791l0.43002-1.8156s0.31057-0.90782 0.31057-1.1945c0-0.28668-0.05972-1.0273-0.05972-1.0273l-0.16723-1.4215s-0.08361-0.3464-0.04778-0.63308c0.03584-0.28668 0.41808-1.6723 0.41808-1.6723l0.7167-2.6876s0.20306-0.72864 0.41807-0.96754c0.21501-0.2389 0.25085-0.32252 0.54947-0.4778 0.29862-0.15528 0.66892-0.10751 0.66892-0.10751l1.8754 0.32252s0.31057 0.0239 0.63308 0.15528c0.32251 0.1314 0.53752 0.53753 0.53752 0.53753l2.9146 6.1636s0.14334 0.38224 0.28668 0.59725 2.4726 2.2337 2.4726 2.2337l2.1501 1.7918s0.60335 0.50168 0.67937 0.67061c0.076 0.16893 0.0254 2.1006 0.0254 2.1006l-1.0252 17.407 2.1043 0.33698 3.4839-20.897s0.1416-0.81802 0.0656-1.1052-0.74328-1.1487-0.74328-1.1487l-1.5372-1.9004s-0.27028-0.25339-0.36319-0.42232c-0.0929-0.16893-0.43077-1.2332-0.43077-1.2332l-0.53212-2.044 1.9342 0.84463s0.32096 0.10136 0.43921 0.2365 0.67571 0.99667 0.67571 0.99667l2.4157 4.0374s0.38853 0.59125 0.43921 0.65882c0.0507 0.0676 1.1487 1.1825 1.1487 1.1825l3.463 3.3448s0.60814 0.42232 0.82774 0.74328c0.21961 0.32096 0.2365 1.2332 0.2365 1.2332l-1.419 13.43s-0.0338 0.20271-0.0338 0.40542c0 0.20272 2e-3 1.2684 2e-3 1.2684l-2e-3 3.7015 3.3913 0.20553-0.1988-4.3309s-0.0338-0.52367-0.0169-0.76017 0.0845-0.7095 0.0845-0.7095l2.6353-13.413s0.1183-1.1994 0.0507-1.4528-0.21961-0.43921-0.21961-0.43921l-2.669-4.6962-0.13558-8.7623 1.6245-10.237s0.0955-0.48975 0.11945-0.80032c0.0239-0.31054-0.0119-0.25084-0.0119-0.25084l-0.52558-3.4402s0.99143 0.29867 2.2218 0.31057c1.2303 0.012 2.0306-0.29862 2.0306-0.29862s0.3583-0.0716 0.3464-0.16723c-0.0119-0.0956-0.39418-0.32252-0.39418-0.32252l-4.68-4.4453s-0.61445-0.36953-0.55535-0.38853-0.10768-0.40542-0.10768-0.40542l-5.2536-5.5239-14.393-6.6726s-1.6555-0.6926-1.9596-1.0136c-0.30407-0.32097-0.43921-0.62503-0.43921-0.62503l-3.9022-6.9598s-0.28717-0.33785-0.20271-1.0642 0.55746-1.0136 0.55746-1.0136l1.1487-0.91221s0.65882-0.43921 0.77707-0.9291c0.11825-0.48989-0.06757-1.8244-0.06757-1.8244l-1.1486-11.538s0.89532-0.48989 1.6724 0.06757c0.77707 0.55746 0.7095 1.5541 0.7095 1.5541l-0.01691 1.6555s-0.06757 0.74328 0.11825 1.2163c0.18582 0.473 0.43921 0.62503 0.43921 0.62503l1.5372 1.4866s0.42232 0.4392 0.79396 0.473 0.64192-0.0338 0.64192-0.0338l2.5846-0.27028s0.55746-0.11825 0.77707-0.30407c0.2196-0.18582 0.473-0.59125 0.473-0.59125l2.3819-4.1894-2.4664 0.76017-0.70949 1.1487v-1.2501s-0.57436 0.08447-1.0811-0.27028c-0.50678-0.35475-0.50678-1.6724-0.50678-1.6724l-0.0169-3.7671s1.098-6.0645 1.0811-6.4868c-0.0169-0.42232-0.43921-3.0238-0.43921-3.0238s-0.20271-1.0642-0.48989-1.3852c-0.28715-0.32096-0.35475-0.25339-0.35475-0.25339l-3.0914-1.9427s-0.55747-0.27028-0.82775-0.2365c-0.27028 0.03379-0.70949 0.20271-0.70949 0.20271l-3.2603 0.82775s-0.28718 0.06757-0.473 0.20271c-0.18582 0.13514-0.65882 0.97978-0.65882 0.97978l-2.2805 4.1894s-0.76017 1.1487-1.6217 1.1149c-0.86153-0.03379-1.4528-1.0305-1.4528-1.0305s-3.8684-5.8956-4.088-5.9969c-0.21961-0.10136-0.7095-0.18582-0.7095-0.18582s-10.254-2.6522-10.794-2.8042c-0.54057-0.15203-0.94599-0.10135-1.2501-0.06757-0.30407 0.03379-0.99667 0.33786-0.99667 0.33786s-6.6109 3.711-7.2082 3.9917-0.83615 1.0691-0.83615 1.0691-3.0795 11.874-3.3752 12.575c-0.29561 0.70105-0.01688 1.3176-0.01688 1.3176s3.9529 9.5613 4.4935 10.034c0.54057 0.47299 0.81085 0.57435 0.81085 0.57435s6.2165 1.4528 6.926 1.2163c0.7095-0.2365 1.0474-0.946 1.0474-0.946l3.8853-5.034-5.1016 2.1285-1.0474 1.4866-0.03379-1.6893-2.9731-3.8853-2.4326 0.10136 2.0947-1.0136 1.2163-7.2301-2.7704-2.8042 3.4123 1.5879 3.2772-2.1623 0.40543-5.6084 0.54057 5.4395 4.0543 1.6217s0.50678 0.03378 0.84464 0.60814c0.33786 0.57435 0.30407 0.84464 0.30407 0.84464l0.06757 2.2298s-1.6555-1.892-3.5137-1.5879c-1.8582 0.30407-1.3852 1.8582-1.3852 1.8582s0.2365 0.84464 0.33785 1.3852c0.10136 0.54057 0.37164 0.60814 0.37164 0.60814s2.7704 1.5879 3.2434 1.6217c0.473 0.03378 0.74328 0.97978 0.74328 0.97978l-0.03379 1.1149-3.0069 11.521-7.1963 14.426 0.06757 12.501 3.6488 6.1827 1.892 15.237-1.1825 18.819-1.7386 5.8266zm0.49842-5.4441-2.746 6.0589-34.65 15.95 30.802-7.914-8.8393 20.115 17.249-25.706 88.154 15.194-35.692-9.3649 4.5869-7.167 17.296 9.1737-18.837-16.699-11.81 11.826s-0.36308 0.2994-0.52432 0.34044c-0.23976 0.061-1.9835-0.45056-1.9835-0.45056z"/>
 </g>
</svg>
